<?xml version="1.0" encoding="utf-8"?>
<!-- Generator: Adobe Illustrator 26.0.1, SVG Export Plug-In . SVG Version: 6.00 Build 0)  -->
<svg version="1.1"
	 id="svg1" inkscape:export-ydpi="51.457458" sodipodi:docbase="/home/vector" sodipodi:docname="chess_set_symbols_07_black_king.svg" sodipodi:version="0.32" xmlns:cc="http://creativecommons.org/ns#" xmlns:dc="http://purl.org/dc/elements/1.1/" xmlns:inkscape="http://www.inkscape.org/namespaces/inkscape" xmlns:rdf="http://www.w3.org/1999/02/22-rdf-syntax-ns#" xmlns:sodipodi="http://sodipodi.sourceforge.net/DTD/sodipodi-0.dtd" xmlns:svg="http://www.w3.org/2000/svg"
	 xmlns="http://www.w3.org/2000/svg" xmlns:xlink="http://www.w3.org/1999/xlink" x="0px" y="0px" viewBox="0 0 78.4 84.7"
	 style="enable-background:new 0 0 78.4 84.7;" xml:space="preserve">
<style type="text/css">
	.st0{display:none;}
	.st1{display:inline;}
</style>
<defs>
	
		<inkscape:perspective  id="perspective20" inkscape:persp3d-origin="526.18109 : 125 : 1" inkscape:vp_x="0 : 187.5 : 1" inkscape:vp_y="0 : 1000 : 0" inkscape:vp_z="1052.3622 : 187.5 : 1" sodipodi:type="inkscape:persp3d">
		</inkscape:perspective>
</defs>
<sodipodi:namedview  bordercolor="#666666" borderopacity="1.0" id="base" inkscape:current-layer="layer1" inkscape:cx="702.38575" inkscape:cy="44.73312" inkscape:pageopacity="0.0" inkscape:pageshadow="2" inkscape:window-height="778" inkscape:window-width="1270" inkscape:window-x="2" inkscape:window-y="0" inkscape:zoom="0.80058132" pagecolor="#ffffff" showgrid="false">
	</sodipodi:namedview>
<g id="layer1" transform="translate(-69.068607,-71.631083)" inkscape:groupmode="layer" inkscape:label="Layer 1" class="st0">
	<path id="text1061" class="st1" d="M111.5,124c0,1.5-1.1,2.3-3.2,2.3c-2.4,0-3.6-0.8-3.6-2.3c0-7.1-2.4-13-7.1-17.4
		c-4.2-3.8-8.3-5.7-12.3-5.7c-5.9,0-9.5,2.3-11,7l-0.5,3.5v0.3c0,3.4,2.5,8.2,7.6,14.3c1.4,1.5,2.5,2.8,3.5,3.6
		c1.4,1.1,3.7,1.7,6.8,1.7c3.4,0,8.8-0.6,16.3-1.9c7.6,1.3,13,1.9,16.4,1.9c3.3,0,5.6-0.6,6.8-1.7c3.6-3.2,6.6-7.1,9-11.6
		c1.4-2.6,2.1-4.7,2.1-6.3c0-5.4-2.5-8.8-7.4-10.2c-1.3-0.3-2.7-0.5-4.1-0.5c-4,0-8,1.9-12.1,5.8C114,111,111.5,116.8,111.5,124
		 M139.6,111.7c0,3.4-2.4,7.5-7.1,12.1l-3.4,2.8l-1.3,0.8c-1.6,0.3-3.4,0.4-5.2,0.4c-5.3,0-8-1.1-8-3.2c0.2-6.6,2.2-11.8,5.9-15.5
		c3.3-3.3,6.6-4.9,10.1-4.9c4.4,0,7.2,1.6,8.4,4.8L139.6,111.7 M127.3,144.4c0-2.2-6.3-3.4-19-3.4c-3.4,0-6.5,0.1-9.2,0.4l-3.1,0.3
		c-4.6,0.6-7,1.5-7,2.6c0,1.3,1.2,1.9,3.5,1.9l15.6-1.3l15.5,1.3C126.1,146.3,127.3,145.6,127.3,144.4 M134.5,147.5
		c-0.2,5.9-9,8.8-26.3,8.8c-17.2,0-25.9-2.9-26.2-8.8c-0.1-5.5-0.9-10.4-2.5-14.7c-0.9-2.3-2.8-5.3-5.4-8.9c-3.4-4.6-5-8.6-5-12.1
		c0-5.5,2.4-9.8,7.1-12.8c2.7-1.7,5.6-2.6,8.9-2.6c4.5,0,8.7,1.6,12.8,4.9c0-4,0.4-6.7,1.2-8.1c0.6-1.6,2.6-3.6,5.9-5.9v-3l-5.3-3.2
		v-4.6h4.8l1.5-4.8h4.4l1.7,4.8h4.6v4.6l-5.2,3.2v3c3.3,2.4,5.3,4.5,6.1,6.2l0.9,3.7c0.1,1,0.2,2.4,0.3,4.1c4-3.3,8.2-4.9,12.5-4.9
		c5.8,0,10.2,2.2,13.4,6.6c1.8,2.6,2.7,5.5,2.7,8.8c0,3.5-1.7,7.6-5,12.3l-3,4.1C136.2,133,134.6,139.5,134.5,147.5 M76.8,111.7
		c0-3.6,1.8-5.9,5.4-7c1-0.3,2.1-0.5,3.2-0.5c3.6,0,7.1,1.6,10.3,4.9c3.7,3.8,5.6,9,5.8,15.5c0.1,1.9-1.9,3-5.9,3.2
		c-0.6,0-1.2,0-1.9,0c-1.7,0-3.5-0.1-5.3-0.4c-2.8-1.4-5.7-4.1-8.5-8.1C77.8,116.3,76.8,113.7,76.8,111.7"/>
</g>
<path id="path1721" d="M39.2,84.8c-17.1,0-25.8-2.9-26.1-8.6c-0.4-7.9-1.8-13.9-4-17.9c-0.9-1.6-2.3-3.6-4-5.9
	c-2.9-3.9-4.6-7.1-4.9-9.8c-0.1-0.7-0.1-1.4-0.1-2.2c0-5.4,2.3-9.7,6.8-12.8c1.1-0.7,2.3-1.2,3.5-1.7c4.6-1.6,9.1-1.4,13.6,0.8
	c1.6,0.8,3.3,1.8,4.9,3.1l0.1,0.1c0-1.8,0.1-3.7,0.3-5.8c0-0.6,0.3-1.4,0.9-2.5c1.4-2.2,3-4,4.9-5.3c0.3-0.2,0.7-0.4,1-0.6v-3.1
	l-5.3-3.1V4.8h4.8l1.7-4.9h3.9l1.7,4.9h4.8v4.6l-5.3,3.1v3.1c4.5,2.8,6.8,5.7,6.8,8.5c0.2,1.7,0.3,3.6,0.3,5.7l0.1-0.1
	c5.4-4.6,11.1-6,17-4.4c1.5,0.4,3,1.1,4.4,1.9c4.8,2.9,7.3,7.3,7.4,13c0,3.4-1.7,7.5-5.2,12.3c-2.8,4-4.6,6.8-5.3,8.6
	c-1.5,3.9-2.3,8.9-2.6,15C65.1,81.9,56.4,84.8,39.2,84.8 M39.2,41.3l3.7-5.9c0.6-1.3,1.1-2.5,1.4-3.6c0.2-0.6,0.3-1.9,0.3-3.7
	c0-5.1-1.8-7.6-5.3-7.6c-3.7,0-5.6,2.5-5.6,7.6c0,1.9,0.1,3.1,0.3,3.7c0.7,2.3,2.2,5.1,4.4,8.3C38.9,40.6,39.2,41.1,39.2,41.3
	 M73.7,41.1c0-3.9-1.3-6.8-3.9-8.9c-2.2-1.8-4.7-2.7-7.6-2.7c-3.7,0-7.7,1.9-12,5.7c-5.1,4.4-8,10.3-8.6,17.8c0,0.6,1.6,1.3,4.8,2.1
	c3.7,0.7,10,1,18.8,1l5.8-7.7C72.7,45.5,73.7,43.1,73.7,41.1 M39.2,58.5c-2.2,0.9-8.7,1.8-19.6,2.5c-1.6,0.1-3,0.2-4,0.3
	c0.9,3.3,1.4,6.9,1.7,10.8c5.9-1.9,13.3-2.8,21.9-2.8c8.9,0,16.2,0.9,21.9,2.8c0.3-4.3,0.8-7.9,1.7-10.8l-19.1-1.5
	C42.1,59.4,40.6,59,39.2,58.5 M4.7,41.1c0,2.7,2.1,6.7,6.3,12.1c1,1.3,1.8,2.2,2.2,2.8h2.3c8.9,0,15.3-0.6,19.4-1.8
	c1.3-0.3,1.9-0.8,1.9-1.3c-0.7-7.5-3.6-13.4-8.6-17.8c-4.2-3.8-8.2-5.7-12-5.7c-1.2,0-2.5,0.3-3.9,0.8c-3.4,0.9-5.8,3.1-7,6.8
	l-0.6,3.5V41.1 M39.2,80.2c8.1,0,13.7-0.5,16.8-1.5c0.8-0.3,1.2-0.6,1.2-0.9c0-2.2-5.9-3.4-17.8-3.4c-4.6,0-9,0.3-13.3,0.9
	c-3.2,0.5-4.8,1.3-4.8,2.5c0,1.3,5.1,2.1,15.2,2.5C37.5,80.2,38.4,80.2,39.2,80.2"/>
</svg>
