<?xml version="1.0" encoding="utf-8"?>
<!-- Generator: Adobe Illustrator 26.0.1, SVG Export Plug-In . SVG Version: 6.00 Build 0)  -->
<svg version="1.1"
	 id="svg1" inkscape:export-ydpi="51.457458" sodipodi:docbase="/home/vector" sodipodi:docname="chess_set_symbols_02_white_rook.svg" sodipodi:version="0.32" xmlns:cc="http://creativecommons.org/ns#" xmlns:dc="http://purl.org/dc/elements/1.1/" xmlns:inkscape="http://www.inkscape.org/namespaces/inkscape" xmlns:rdf="http://www.w3.org/1999/02/22-rdf-syntax-ns#" xmlns:sodipodi="http://sodipodi.sourceforge.net/DTD/sodipodi-0.dtd" xmlns:svg="http://www.w3.org/2000/svg"
	 xmlns="http://www.w3.org/2000/svg" xmlns:xlink="http://www.w3.org/1999/xlink" x="0px" y="0px" viewBox="0 0 64.8 75.8"
	 style="enable-background:new 0 0 64.8 75.8;" xml:space="preserve">
<style type="text/css">
	.st0{display:none;}
	.st1{display:inline;}
</style>
<defs>
	
		<inkscape:perspective  id="perspective20" inkscape:persp3d-origin="526.18109 : 125 : 1" inkscape:vp_x="0 : 187.5 : 1" inkscape:vp_y="0 : 1000 : 0" inkscape:vp_z="1052.3622 : 187.5 : 1" sodipodi:type="inkscape:persp3d">
		</inkscape:perspective>
</defs>
<sodipodi:namedview  bordercolor="#666666" borderopacity="1.0" id="base" inkscape:current-layer="layer1" inkscape:cx="408.97908" inkscape:cy="239.13405" inkscape:pageopacity="0.0" inkscape:pageshadow="2" inkscape:window-height="778" inkscape:window-width="1270" inkscape:window-x="2" inkscape:window-y="0" inkscape:zoom="1.3674339" pagecolor="#ffffff" showgrid="false">
	</sodipodi:namedview>
<g id="layer1" transform="translate(-412.72685,-223.368)" inkscape:groupmode="layer" inkscape:label="Layer 1" class="st0">
	<path id="path1705" class="st1" d="M430.4,249.1v22.9h29.4v-22.9H430.4 M415.2,299.1l-2.5-2.5v-8.9l13.2-13.3v-25.8l-11.4-9.9V227
		l3.7-3.6h11.6l2.2,2.2v3.4h3.7v-3.4l2.2-2.2h14.2l2.2,2.2v3.4h3.6v-3.4l2.3-2.2H472l3.7,3.6v11.7l-11.4,9.9v25.8l13.2,13.3v8.9
		l-2.5,2.5H415.2 M417.2,289v5H473v-5H417.2 M429.9,276.2l-8.5,8.3h47.5l-8.5-8.3H429.9 M440.2,228.8v3.4l-1.9,1.8h-8.4l-1.9-1.8
		v-3.6h-7.2l-1.7,1.8v7.2l8.8,7.1h34.6l8.8-7.1v-7.2l-1.7-1.8h-7.2v3.6l-1.9,1.8H452l-1.9-1.8v-3.4H440.2"/>
</g>
<path id="path1734" d="M2.5,75.8l-2.5-2.5v-9.2l13-12.9V25.6L3,15.6V4.1l3.6-3.6h9.2l2.3,2.2v3.2H23V2.7l2.2-2.2h14.3l2.2,2.2v3.2
	h4.9V2.7l2.2-2.2h9.3l3.6,3.6v11.5l-10.1,9.9v25.7l13,12.9v9.2l-2.6,2.5H2.5 M17.8,48.3v4.4h29.3v-4.4H17.8 M17.8,25v4.4h29.3V25
	H17.8"/>
</svg>
